<svg xmlns="http://www.w3.org/2000/svg" xmlns:xlink="http://www.w3.org/1999/xlink" width="262.118" height="77.059" viewBox="0 0 262.118 77.059">
  <defs>
    <clipPath id="clip-path">
      <rect id="Rectangle_1800" data-name="Rectangle 1800" width="262.118" height="77.059" fill="none"/>
    </clipPath>
  </defs>
  <g id="Group_363" data-name="Group 363" transform="translate(0 0)">
    <g id="Group_362" data-name="Group 362" transform="translate(0 0)" clip-path="url(#clip-path)">
      <path id="Path_93" data-name="Path 93" d="M186.31,8.544c4.1-3.342,10.5-8.521,10.5-8.521L170.081,0s-13.189,9.372-19.289,13.731c-.776-1.14-3.551-5.192-3.551-5.192l-60.118.005-6.949,8.841,2.774-8.841H13.005L0,50.044H86.635s2.52-3.674,3.215-4.7h3.415c.059,1.439.2,4.7.2,4.7l44.681-.005s2.572-2.218,2.947-2.54l1.567,2.54,106.47.005,12.989-41.5ZM121.64,34.435l-3.358-20.949c3.052,5.281,7.687,13.288,9.54,16.485-1.183.852-3.446,2.491-6.182,4.464m42-1.932c-.785-1.155-1.464-2.139-1.943-2.851,1.031-.881,2.38-2.055,3.889-3.346Z" transform="translate(0 0.001)" fill="#1d1e1c"/>
      <path id="Path_94" data-name="Path 94" d="M51.145,22.858h7.3l.05-11.077h-.127Z" transform="translate(40.26 9.274)" fill="#fff"/>
      <path id="Path_95" data-name="Path 95" d="M226.281,10.508s-3.292,5.615-5.833,9.978c.154-3.539.424-9.978.424-9.978H179.6V6.2l5.181-4.225L168.95,1.953,147.714,17.08,143.2,10.5H119.228s9.136,15.75,10.961,18.915c-1.632,1.188-7.892,5.689-13.268,9.572l-4.566-28.482H86.65L69.078,32.9l7.013-22.395H47.262s-3.281,5.6-5.81,9.962c.154-3.537.424-9.962.424-9.962H13.462L2.635,45.058h19.95s1.424-4.572,1.805-5.76c-.016.774-.123,5.76-.123,5.76H44.074S46.2,41.53,46.656,40.8l-1.339,4.257H82.654s2.325-3.412,3.213-4.723H94.42c.05,1.121.2,4.723.2,4.723l40.029,0s3.086-2.686,5.047-4.361c.953,1.533,2.686,4.361,2.686,4.361l59.2,0s1.428-4.572,1.805-5.767c-.016.781-.129,5.767-.129,5.767H223.08s2.13-3.528,2.577-4.257c-.021.073-1.335,4.257-1.335,4.257h19.95l10.814-34.549ZM48.853,42.448l6.564-20.974h-.109L42.616,42.448H26.91l.468-20.974H27.25L20.676,42.448H6.17l9.2-29.356H39.165l-.736,17.5h.118l10.214-17.5h23.8l-9.2,29.356Zm48.264,0-.2-4.7H84.505l-3.212,4.7H64.875L87.922,13.092h22.232l4.707,29.356ZM162.579,38.8c-2.968-4.355-6.582-9.622-7.7-11.263,1.75-1.519,9.325-8.071,15.425-13.348Zm79.784,3.644H227.855l6.57-20.974H234.3L221.62,42.448H205.907l.466-20.974h-.129l-6.571,20.974h-14.5l9.209-29.356h23.784l-.745,17.5h.13l10.219-17.5h23.785Z" transform="translate(2.074 1.538)" fill="#fff"/>
      <path id="Path_96" data-name="Path 96" d="M110.266,37.555H93.1l9.227-29.386H104.5v5.406c-.034.045-.107.027-.132.088l-.441,1.056c0-.007-.043.248-.043.248s-.157,2.1-.157,2.112a.878.878,0,0,0,.229.468c-.055.155-.116.32-.116.32a5.815,5.815,0,0,0,.209,1s.082.073.064.116a5.141,5.141,0,0,0-3.537,4.9,5.216,5.216,0,0,0,3.176,4.69c.348.792.325.461.6,1.121l.114.139c.032.093.073.2.125.325a2.525,2.525,0,0,0-.849-.549,1.957,1.957,0,0,0-1.748.214.948.948,0,0,0-.431.679,2.472,2.472,0,0,0-.023.327,1.458,1.458,0,0,0,.407,1.058,1.234,1.234,0,0,0,.529.2c-.009.114-.038.245-.038.363a3.287,3.287,0,0,0,2.043,3.117,2.8,2.8,0,0,0,2.352-.038,3.065,3.065,0,0,0,1.669-1.49,3.014,3.014,0,0,0,.42-1.514,4.261,4.261,0,0,0-1.276-2.743v-.093a3.061,3.061,0,0,0,.579-1.2,5.162,5.162,0,0,0,2.954-4.613,5.22,5.22,0,0,0-3.412-4.825,2.415,2.415,0,0,0,.277-1.119,3.7,3.7,0,0,0-.113-.735,2.426,2.426,0,0,0,.079-.409,2.384,2.384,0,0,0-.182-.919c0-.281.012-1.941.012-1.941a1.011,1.011,0,0,0-.315-.72c-.038-.038-.091-.025-.132-.052v-5h12.062Z" transform="translate(73.284 6.431)" fill="#1d1e1c"/>
      <path id="Path_97" data-name="Path 97" d="M128.319,31.627a4.25,4.25,0,0,0-.393-8.149c-.189-.307-.45-.429-.391-.661a1.784,1.784,0,0,0,.323-1.826,1.654,1.654,0,0,0-.1-1.187l.009-2.1-.441.054V3.434h-.045l.029-.025h-7.7L96.893,19.585l-5.227-7.642H73.558L83.443,29,66.37,41.3H83.512l6.621-5.712L93.662,41.3h18.111L101.257,25.958,126.6,4.017V17.84l-.239.029a5.4,5.4,0,0,0-.345.752,10.163,10.163,0,0,0-.193,2.164c.159.091.159.02.318.261.02.352-.2.331-.2.6-.016.763.431.879.422,1.149s-.213.281-.213.281-.08.168-.159.381a4.26,4.26,0,0,0-3.335,4.152,4.211,4.211,0,0,0,1.1,2.838,3.794,3.794,0,0,0,1.657,1.187c.048.8.6,1.163.767,1.482a.164.164,0,0,1,.045.011v.261c.029.865.584.7.867,1.946.172.8-.1,1.342-.888,1.342s-.819-.983-.985-1.455a1.266,1.266,0,0,0-1.832-.854c-.073.62.166.686.5.624s.534.1.449.559a2.428,2.428,0,0,0,1.407,2.911,2.155,2.155,0,0,0,1.625-.048c.273-.111.668-.216,1.206-1.124.819-1.355-.291-2.786-.988-3.455V33.39a1.3,1.3,0,0,1-.025-.27,1.908,1.908,0,0,0,.77-1.494" transform="translate(52.244 2.684)" fill="#d5151a"/>
      <g id="Group_364" data-name="Group 364">
        <path id="Path_98" data-name="Path 98" d="M87.6,33.85,82.4,48.651l-3.962,0,3.51-9.992-5.093,9.99-2.811,0,1.771-9.765-3.44,9.763-3.964,0,5.208-14.8,5.867.005c-.141.89-.329,1.939-.57,3.145l-.681,3.766,3.474-6.911Z" transform="translate(53.848 26.638)" fill="#d5151a"/>
        <path id="Path_99" data-name="Path 99" d="M83.851,40.136l-4.084,0,.288-.813A6.825,6.825,0,0,1,81.2,37.148,5.4,5.4,0,0,1,83.211,35.8a8.012,8.012,0,0,1,3.2-.584,5.346,5.346,0,0,1,3.1.667,1.7,1.7,0,0,1,.772,1.628,24.448,24.448,0,0,1-1.172,3.971l-2.141,6.089-4.232,0,.381-1.083a4.3,4.3,0,0,1-1.373.976,4.013,4.013,0,0,1-1.616.323,3.179,3.179,0,0,1-1.9-.547q-.761-.542-.116-2.382l.352-1a3.8,3.8,0,0,1,1.158-1.855,11.168,11.168,0,0,1,2.915-1.151,10.977,10.977,0,0,0,2.631-.958,2.959,2.959,0,0,0,.506-1,2.947,2.947,0,0,0,.268-1.239c-.045-.191-.195-.29-.454-.29a.767.767,0,0,0-.634.241,5.488,5.488,0,0,0-.549,1.258Zm.794,1.664a4.907,4.907,0,0,0-1.6,1.087,5.033,5.033,0,0,0-.609,1.262,3.336,3.336,0,0,0-.284,1.217c.034.182.195.273.481.273a.8.8,0,0,0,.609-.213,4.012,4.012,0,0,0,.522-1.131Z" transform="translate(61.249 27.723)" fill="#d5151a"/>
        <path id="Path_100" data-name="Path 100" d="M92.758,35.444l-.733,1.6a4.915,4.915,0,0,1,3.385-1.816l-1.5,4.271a4.983,4.983,0,0,0-1.853.272,1.959,1.959,0,0,0-.958.765,14.678,14.678,0,0,0-.92,2.252L88.49,47.575l-4.35,0L88.406,35.44Z" transform="translate(66.232 27.728)" fill="#d5151a"/>
        <path id="Path_101" data-name="Path 101" d="M102.563,36.532,99.1,41.362l-.275,7.3-4.184,0,.5-5.286-1.866,5.286-4.352,0,5.208-14.8,4.35,0L96.3,40.07l2.6-3.54Z" transform="translate(70 26.65)" fill="#d5151a"/>
        <path id="Path_102" data-name="Path 102" d="M106.7,41.736l-5.633,0-.922,2.624a2.57,2.57,0,0,0-.234,1.062q.059.236.456.236a.971.971,0,0,0,.772-.313,3.983,3.983,0,0,0,.6-1.221l.563-1.6,4.125,0-.316.9a8.939,8.939,0,0,1-.774,1.728,5.449,5.449,0,0,1-1.235,1.289,5.959,5.959,0,0,1-1.916,1.028,8.064,8.064,0,0,1-2.486.34,6.881,6.881,0,0,1-2.314-.338,2.512,2.512,0,0,1-1.315-.929,2.206,2.206,0,0,1-.357-1.3,7.6,7.6,0,0,1,.5-2.061l1.244-3.539a7.381,7.381,0,0,1,1.39-2.509A5.333,5.333,0,0,1,101,35.72a8.062,8.062,0,0,1,2.822-.488,5.5,5.5,0,0,1,2.813.593,2.149,2.149,0,0,1,1.121,1.564,6.281,6.281,0,0,1-.484,2.738Zm-3.667-1.977.311-.888a4.045,4.045,0,0,0,.309-1.215c-.014-.182-.143-.275-.386-.275a.781.781,0,0,0-.643.234,5.458,5.458,0,0,0-.55,1.255l-.311.888Z" transform="translate(75.341 27.734)" fill="#d5151a"/>
        <path id="Path_103" data-name="Path 103" d="M110.925,34.457l-.672,1.909,1.172,0-.676,1.919h-1.172l-2.284,6.491c-.281.8-.388,1.242-.323,1.333s.452.139,1.162.141l-.688,1.955-1.753,0a14.15,14.15,0,0,1-2.086-.107,1.626,1.626,0,0,1-.949-.484,1.056,1.056,0,0,1-.3-.87,14.465,14.465,0,0,1,.688-2.3l2.17-6.162h-.938l.676-1.921h.938l.672-1.909Z" transform="translate(80.568 27.121)" fill="#d5151a"/>
        <path id="Path_104" data-name="Path 104" d="M114.966,35.459l-.452,1.072a6.34,6.34,0,0,1,1.623-.97,4.446,4.446,0,0,1,1.644-.32,2.456,2.456,0,0,1,1.585.465,1.263,1.263,0,0,1,.549,1.065,8.645,8.645,0,0,1-.538,2.048l-1.8,5.11a11.014,11.014,0,0,1-1.06,2.354,3.336,3.336,0,0,1-1.34,1.115,4.292,4.292,0,0,1-1.875.415,2.823,2.823,0,0,1-1.385-.322,2.386,2.386,0,0,1-.924-.953l-.979,2.779-4.35,0,4.874-13.858Zm0,3.53a5.756,5.756,0,0,0,.381-1.362c-.007-.159-.159-.239-.454-.239a.785.785,0,0,0-.651.275,5.467,5.467,0,0,0-.59,1.326l-1.769,5.027a4.544,4.544,0,0,0-.354,1.373c.021.182.177.272.465.272a.709.709,0,0,0,.609-.248,5.607,5.607,0,0,0,.534-1.222Z" transform="translate(83.177 27.741)" fill="#d5151a"/>
        <path id="Path_105" data-name="Path 105" d="M122.468,33.875l-5.208,14.8-4.479,0,5.206-14.8Z" transform="translate(88.778 26.665)" fill="#d5151a"/>
        <path id="Path_106" data-name="Path 106" d="M122.832,40.167l-4.084,0,.288-.813a6.834,6.834,0,0,1,1.146-2.171,5.375,5.375,0,0,1,2.011-1.346,8.012,8.012,0,0,1,3.2-.584,5.346,5.346,0,0,1,3.1.667,1.7,1.7,0,0,1,.772,1.628,24.447,24.447,0,0,1-1.172,3.971L125.945,47.6l-4.232,0,.381-1.081a4.267,4.267,0,0,1-1.373.974,3.984,3.984,0,0,1-1.616.325,3.191,3.191,0,0,1-1.9-.547c-.508-.361-.545-1.158-.116-2.382l.352-1a3.8,3.8,0,0,1,1.158-1.855,11.168,11.168,0,0,1,2.915-1.151,10.977,10.977,0,0,0,2.631-.958,2.959,2.959,0,0,0,.506-1,2.947,2.947,0,0,0,.268-1.239c-.045-.191-.195-.29-.454-.29a.767.767,0,0,0-.634.241,5.489,5.489,0,0,0-.549,1.258Zm.793,1.664a4.907,4.907,0,0,0-1.6,1.087,5.032,5.032,0,0,0-.609,1.262,3.337,3.337,0,0,0-.284,1.217c.034.182.195.273.481.273a.8.8,0,0,0,.609-.213,4.013,4.013,0,0,0,.522-1.131Z" transform="translate(91.934 27.748)" fill="#d5151a"/>
        <path id="Path_107" data-name="Path 107" d="M134.979,40.058l-4.1,0,.493-1.4a2.431,2.431,0,0,0,.209-.99c-.032-.175-.173-.263-.425-.263a.753.753,0,0,0-.586.229,3.381,3.381,0,0,0-.49,1.024l-2.014,5.723a1.879,1.879,0,0,0-.148.972.413.413,0,0,0,.458.325.874.874,0,0,0,.717-.336,4.722,4.722,0,0,0,.606-1.28l.508-1.446,3.876,0a20.133,20.133,0,0,1-.89,2.18,5.176,5.176,0,0,1-1.246,1.491,6.023,6.023,0,0,1-1.993,1.149,7.72,7.72,0,0,1-2.559.386,5.4,5.4,0,0,1-2.731-.538,1.931,1.931,0,0,1-1-1.5,6.708,6.708,0,0,1,.516-2.74l1.212-3.446a7.844,7.844,0,0,1,1.187-2.33,5.391,5.391,0,0,1,2.055-1.4,7.708,7.708,0,0,1,3.126-.615,5.1,5.1,0,0,1,2.691.615,1.981,1.981,0,0,1,1.06,1.546,7.014,7.014,0,0,1-.531,2.643" transform="translate(97.331 27.751)" fill="#d5151a"/>
        <path id="Path_108" data-name="Path 108" d="M141.1,41.761l-5.633,0-.922,2.624a2.575,2.575,0,0,0-.234,1.062q.059.236.456.236a.965.965,0,0,0,.772-.313,3.982,3.982,0,0,0,.6-1.221l.563-1.6,4.125,0-.316.9a8.865,8.865,0,0,1-.774,1.726A5.416,5.416,0,0,1,138.5,46.46a5.959,5.959,0,0,1-1.916,1.028,8.115,8.115,0,0,1-2.486.341,6.923,6.923,0,0,1-2.314-.34,2.5,2.5,0,0,1-1.315-.929,2.206,2.206,0,0,1-.357-1.3,7.6,7.6,0,0,1,.5-2.061l1.244-3.539a7.38,7.38,0,0,1,1.39-2.509,5.311,5.311,0,0,1,2.154-1.4,8.063,8.063,0,0,1,2.822-.49,5.5,5.5,0,0,1,2.813.593,2.149,2.149,0,0,1,1.121,1.564,6.292,6.292,0,0,1-.484,2.74Zm-3.667-1.977.311-.888a4.045,4.045,0,0,0,.309-1.215c-.014-.182-.143-.275-.386-.275a.781.781,0,0,0-.643.234,5.525,5.525,0,0,0-.55,1.256l-.311.888Z" transform="translate(102.417 27.755)" fill="#d5151a"/>
      </g>
    </g>
  </g>
</svg>
